<svg xmlns="http://www.w3.org/2000/svg" xmlns:xlink="http://www.w3.org/1999/xlink" version="1.1" x="0px" y="0px" viewBox="0 0 96 120" enable-background="new 0 0 96 96" xml:space="preserve"><g><path d="M69.91,42.686L69.91,42.686c4.431,0,8.595-1.725,11.727-4.857c4.565-4.564,6.067-11.43,3.828-17.492   c-0.211-0.568-0.696-0.992-1.29-1.121c-0.593-0.131-1.212,0.051-1.642,0.479l-9.241,9.242l-6.229-6.229l9.241-9.24   c0.43-0.43,0.611-1.049,0.481-1.643c-0.131-0.594-0.554-1.078-1.123-1.289c-1.849-0.684-3.788-1.029-5.765-1.029   c-4.431,0-8.595,1.725-11.728,4.857c-4.157,4.156-5.78,10.107-4.363,15.76l-4.309,4.309L34.43,19.361   c-0.032-0.031-0.066-0.063-0.101-0.092c-0.008-0.006-0.016-0.014-0.023-0.021c-0.053-0.043-0.108-0.082-0.165-0.121   c-0.017-0.01-0.033-0.018-0.049-0.027c-0.044-0.027-0.089-0.051-0.134-0.074c-0.021-0.01-0.04-0.02-0.061-0.029   c-0.049-0.021-0.1-0.041-0.151-0.059c-0.011-0.004-0.022-0.01-0.034-0.014l-20.079-6.416c-0.636-0.203-1.331-0.033-1.802,0.439   c-0.472,0.471-0.641,1.166-0.438,1.801l6.415,20.08c0.003,0.008,0.007,0.016,0.011,0.025c0.018,0.055,0.04,0.109,0.063,0.162   c0.007,0.016,0.015,0.033,0.022,0.049c0.025,0.053,0.055,0.104,0.085,0.154c0.006,0.01,0.012,0.021,0.018,0.029   c0.038,0.059,0.079,0.115,0.125,0.172c0.009,0.01,0.019,0.02,0.027,0.031c0.028,0.031,0.056,0.063,0.086,0.094l5.431,5.432   c0.695,0.695,1.823,0.695,2.52,0c0.695-0.695,0.695-1.824,0-2.52l-4.171-4.172L33.17,23.141l15.064,15.064   c0.002,0.002,0.003,0.004,0.005,0.006l9.55,9.549l0,0l12.089,12.09L58.734,70.994L46.646,58.906c-0.001,0-0.001-0.002-0.001-0.002   l-3.76-3.758L32.596,44.855c-0.696-0.695-1.823-0.695-2.521,0c-0.695,0.695-0.695,1.824,0,2.52l3.24,3.24l-3.193,3.193   c-1.315-0.328-2.668-0.494-4.031-0.494c-4.431,0-8.596,1.725-11.728,4.857c-4.565,4.563-6.067,11.43-3.828,17.49   c0.211,0.57,0.696,0.994,1.29,1.123c0.593,0.131,1.212-0.051,1.642-0.48l9.241-9.242l6.228,6.229l-9.24,9.242   c-0.43,0.43-0.611,1.049-0.48,1.641c0.13,0.594,0.553,1.08,1.122,1.291c1.849,0.682,3.788,1.029,5.765,1.029   c4.43,0,8.596-1.725,11.729-4.857c4.156-4.158,5.779-10.109,4.361-15.76l3.193-3.193l12.089,12.09l10.363,10.363   c0.349,0.348,0.805,0.521,1.261,0.521s0.912-0.174,1.26-0.521l13.664-13.664c0.333-0.334,0.521-0.787,0.521-1.26   s-0.188-0.926-0.521-1.26L73.658,58.59L61.568,46.5l4.31-4.309C67.193,42.52,68.546,42.686,69.91,42.686z M29.843,21.43   l-4.764,4.764l-4.766,4.766l-4.475-14.004L29.843,21.43z M38.932,64.098c-0.472,0.473-0.641,1.17-0.437,1.805   c1.506,4.682,0.284,9.744-3.186,13.215c-2.459,2.459-5.729,3.813-9.208,3.813c-0.558,0-1.111-0.035-1.66-0.104l8.274-8.275   c0.695-0.695,0.695-1.822,0-2.52l-8.748-8.748c-0.335-0.332-0.788-0.521-1.26-0.521c-0.473,0-0.926,0.189-1.26,0.521l-8.272,8.273   c-0.498-3.947,0.829-7.99,3.708-10.867c2.458-2.457,5.728-3.813,9.207-3.813c1.363,0,2.712,0.211,4.006,0.627   c0.636,0.205,1.333,0.037,1.805-0.436l3.934-3.934l7.03,7.029L38.932,64.098z M69.098,81.357l-7.844-7.844l11.145-11.145   l7.843,7.844L69.098,81.357z M64.099,38.932l-5.05,5.049l-7.029-7.029l5.049-5.051c0.473-0.471,0.642-1.168,0.437-1.803   C56,25.416,57.221,20.354,60.69,16.883c2.459-2.459,5.729-3.813,9.208-3.813c0.558,0,1.111,0.033,1.66,0.104l-8.274,8.273   c-0.695,0.697-0.695,1.824,0,2.52l8.748,8.75c0.334,0.334,0.787,0.521,1.26,0.521c0.472,0,0.926-0.188,1.26-0.521l8.273-8.273   c0.497,3.945-0.83,7.988-3.709,10.865c-2.458,2.459-5.728,3.814-9.206,3.813c-1.364,0-2.713-0.211-4.007-0.627   C65.267,38.291,64.57,38.459,64.099,38.932z"/></g></svg>